# xmcd CD database file
#
# Track frame offsets:
#	150
#	16050
#	34617
#
# Disc length: 750 seconds
#
# Revision: 1
# Processed by: cddbd v1.5PL3 Copyright (c) Steve Scherf et al.
# Submitted via: CDex 1.51
#
DISCID=1402ec03
DTITLE=椎名林檎 - りんごのうた
DYEAR=2003
DGENRE=Pop
TTITLE0=りんごのうた
TTITLE1=la salle de bain
TTITLE2=リンゴカタログ〜黒子時代再編纂〜
EXTD=YEAR: 2003
EXTT0=
EXTT1=
EXTT2=
PLAYORDER=
